<mxfile host="Copilot">
    <diagram id="SimplifiedComponentDiagram" name="Multi-Agent AI System - Simplified">
        <mxGraphModel dx="1500" dy="900" grid="1" gridSize="10" guides="1" tooltips="1" connect="1" arrows="1" fold="1" page="1" pageScale="1" pageWidth="1600" pageHeight="1000" math="0" shadow="0">
            <root>
                <mxCell id="0"/>
                <mxCell id="1" parent="0"/>
                
                <!-- UI Layer Section -->
                <mxCell id="2" value="UI Layer" style="text;html=1;strokeColor=none;fillColor=none;align=center;verticalAlign=middle;whiteSpace=wrap;rounded=0;fontSize=16;fontStyle=1;fontColor=#9673a6;" vertex="1" parent="1">
                    <mxGeometry x="120" y="20" width="80" height="30" as="geometry"/>
                </mxCell>
                
                <mxCell id="3" value="Web Dashboard" style="rounded=1;whiteSpace=wrap;html=1;fillColor=#e1d5e7;strokeColor=#9673a6;fontSize=14;fontStyle=1;" vertex="1" parent="1">
                    <mxGeometry x="50" y="60" width="200" height="50" as="geometry"/>
                </mxCell>
                
                <mxCell id="4" value="Document Upload &amp; Management" style="rounded=1;whiteSpace=wrap;html=1;fillColor=#cfe2f3;strokeColor=#6d9eeb;" vertex="1" parent="1">
                    <mxGeometry x="50" y="130" width="200" height="40" as="geometry"/>
                </mxCell>
                
                <mxCell id="5" value="Progress &amp; Approval Interface" style="rounded=1;whiteSpace=wrap;html=1;fillColor=#cfe2f3;strokeColor=#6d9eeb;" vertex="1" parent="1">
                    <mxGeometry x="50" y="190" width="200" height="40" as="geometry"/>
                </mxCell>
                
                <!-- Data Processing Section -->
                <mxCell id="6" value="Data Processing Pipeline" style="text;html=1;strokeColor=none;fillColor=none;align=center;verticalAlign=middle;whiteSpace=wrap;rounded=0;fontSize=16;fontStyle=1;fontColor=#9673a6;" vertex="1" parent="1">
                    <mxGeometry x="380" y="20" width="180" height="30" as="geometry"/>
                </mxCell>
                
                <mxCell id="7" value="Input Documents&#10;(PDF, Excel, CSV)" style="shape=document;whiteSpace=wrap;html=1;boundedLbl=1;fillColor=#dae8fc;strokeColor=#6c8ebf;" vertex="1" parent="1">
                    <mxGeometry x="320" y="80" width="120" height="60" as="geometry"/>
                </mxCell>
                
                <mxCell id="8" value="Document Manager" style="rounded=1;whiteSpace=wrap;html=1;fillColor=#ffe6cc;strokeColor=#d79b00;" vertex="1" parent="1">
                    <mxGeometry x="480" y="80" width="120" height="60" as="geometry"/>
                </mxCell>
                
                <mxCell id="9" value="Cleanse, Chunk &amp; Vectorize" style="rounded=1;whiteSpace=wrap;html=1;fillColor=#f8cecc;strokeColor=#b85450;" vertex="1" parent="1">
                    <mxGeometry x="640" y="80" width="140" height="60" as="geometry"/>
                </mxCell>
                
                <!-- Storage Section -->
                <mxCell id="10" value="Storage Layer" style="text;html=1;strokeColor=none;fillColor=none;align=center;verticalAlign=middle;whiteSpace=wrap;rounded=0;fontSize=16;fontStyle=1;fontColor=#9673a6;" vertex="1" parent="1">
                    <mxGeometry x="840" y="20" width="120" height="30" as="geometry"/>
                </mxCell>
                
                <mxCell id="11" value="Vector DB" style="shape=cylinder3;whiteSpace=wrap;html=1;boundedLbl=1;backgroundOutline=1;size=15;fillColor=#e1d5e7;strokeColor=#9673a6;" vertex="1" parent="1">
                    <mxGeometry x="820" y="70" width="80" height="60" as="geometry"/>
                </mxCell>
                
                <mxCell id="12" value="MongoDB" style="shape=cylinder3;whiteSpace=wrap;html=1;boundedLbl=1;backgroundOutline=1;size=15;fillColor=#e1d5e7;strokeColor=#9673a6;" vertex="1" parent="1">
                    <mxGeometry x="820" y="150" width="80" height="60" as="geometry"/>
                </mxCell>
                
                <!-- AI Agents Section -->
                <mxCell id="13" value="AI Agent System (LangGraph)" style="text;html=1;strokeColor=none;fillColor=none;align=center;verticalAlign=middle;whiteSpace=wrap;rounded=0;fontSize=16;fontStyle=1;fontColor=#9673a6;" vertex="1" parent="1">
                    <mxGeometry x="1000" y="20" width="200" height="30" as="geometry"/>
                </mxCell>
                
                <mxCell id="14" value="Prompt Manager" style="rounded=1;whiteSpace=wrap;html=1;fillColor=#ffe6cc;strokeColor=#d79b00;" vertex="1" parent="1">
                    <mxGeometry x="980" y="60" width="120" height="40" as="geometry"/>
                </mxCell>
                
                <mxCell id="15" value="Agent 1: Equity Research Analyst" style="rounded=1;whiteSpace=wrap;html=1;fillColor=#d5e8d4;strokeColor=#82b366;" vertex="1" parent="1">
                    <mxGeometry x="980" y="120" width="160" height="50" as="geometry"/>
                </mxCell>
                
                <mxCell id="16" value="Agent 2: Sr. Equity Research Analyst" style="rounded=1;whiteSpace=wrap;html=1;fillColor=#d5e8d4;strokeColor=#82b366;" vertex="1" parent="1">
                    <mxGeometry x="1160" y="120" width="160" height="50" as="geometry"/>
                </mxCell>
                
                <!-- Output Section -->
                <mxCell id="17" value="Output &amp; Approval" style="text;html=1;strokeColor=none;fillColor=none;align=center;verticalAlign=middle;whiteSpace=wrap;rounded=0;fontSize=16;fontStyle=1;fontColor=#9673a6;" vertex="1" parent="1">
                    <mxGeometry x="1020" y="240" width="140" height="30" as="geometry"/>
                </mxCell>
                
                <mxCell id="18" value="Draft &amp; Feedback Loop" style="shape=document;whiteSpace=wrap;html=1;boundedLbl=1;fillColor=#fff2cc;strokeColor=#d6b656;" vertex="1" parent="1">
                    <mxGeometry x="980" y="280" width="120" height="50" as="geometry"/>
                </mxCell>
                
                <mxCell id="19" value="File Writer Tool" style="shape=process;whiteSpace=wrap;html=1;backgroundOutline=1;fillColor=#f5f5f5;strokeColor=#666666;" vertex="1" parent="1">
                    <mxGeometry x="1140" y="280" width="100" height="50" as="geometry"/>
                </mxCell>
                
                <mxCell id="20" value="Human Approval &amp; Final CSV Output" style="ellipse;whiteSpace=wrap;html=1;fillColor=#ffcccc;strokeColor=#ff6666;" vertex="1" parent="1">
                    <mxGeometry x="1280" y="280" width="140" height="70" as="geometry"/>
                </mxCell>
                
                <!-- Main Data Flow Arrows (Simplified) -->
                <!-- UI to Documents -->
                <mxCell id="21" value="uploads" style="endArrow=classic;html=1;exitX=1;exitY=0.5;exitDx=0;exitDy=0;entryX=0;entryY=0.5;entryDx=0;entryDy=0;strokeWidth=2;" edge="1" parent="1" source="4" target="7">
                    <mxGeometry width="50" height="50" relative="1" as="geometry">
                        <mxPoint x="260" y="150" as="sourcePoint"/>
                        <mxPoint x="320" y="110" as="targetPoint"/>
                    </mxGeometry>
                </mxCell>
                
                <!-- Main Processing Pipeline -->
                <mxCell id="22" value="" style="endArrow=classic;html=1;exitX=1;exitY=0.5;exitDx=0;exitDy=0;entryX=0;entryY=0.5;entryDx=0;entryDy=0;strokeWidth=3;strokeColor=#d79b00;" edge="1" parent="1" source="7" target="8">
                    <mxGeometry width="50" height="50" relative="1" as="geometry">
                        <mxPoint x="450" y="110" as="sourcePoint"/>
                        <mxPoint x="480" y="110" as="targetPoint"/>
                    </mxGeometry>
                </mxCell>
                
                <mxCell id="23" value="" style="endArrow=classic;html=1;exitX=1;exitY=0.5;exitDx=0;exitDy=0;entryX=0;entryY=0.5;entryDx=0;entryDy=0;strokeWidth=3;strokeColor=#d79b00;" edge="1" parent="1" source="8" target="9">
                    <mxGeometry width="50" height="50" relative="1" as="geometry">
                        <mxPoint x="610" y="110" as="sourcePoint"/>
                        <mxPoint x="640" y="110" as="targetPoint"/>
                    </mxGeometry>
                </mxCell>
                
                <mxCell id="24" value="" style="endArrow=classic;html=1;exitX=1;exitY=0.5;exitDx=0;exitDy=0;entryX=0;entryY=0.5;entryDx=0;entryDy=0;strokeWidth=3;strokeColor=#d79b00;" edge="1" parent="1" source="9" target="11">
                    <mxGeometry width="50" height="50" relative="1" as="geometry">
                        <mxPoint x="790" y="110" as="sourcePoint"/>
                        <mxPoint x="820" y="100" as="targetPoint"/>
                    </mxGeometry>
                </mxCell>
                
                <!-- Storage to Agents -->
                <mxCell id="25" value="data retrieval" style="endArrow=classic;html=1;exitX=1;exitY=0.5;exitDx=0;exitDy=0;entryX=0;entryY=0.5;entryDx=0;entryDy=0;strokeWidth=2;" edge="1" parent="1" source="11" target="15">
                    <mxGeometry width="50" height="50" relative="1" as="geometry">
                        <mxPoint x="910" y="100" as="sourcePoint"/>
                        <mxPoint x="980" y="145" as="targetPoint"/>
                    </mxGeometry>
                </mxCell>
                
                <!-- Agents Workflow -->
                <mxCell id="26" value="collaboration" style="endArrow=classic;html=1;exitX=1;exitY=0.5;exitDx=0;exitDy=0;entryX=0;entryY=0.5;entryDx=0;entryDy=0;strokeWidth=2;" edge="1" parent="1" source="15" target="16">
                    <mxGeometry width="50" height="50" relative="1" as="geometry">
                        <mxPoint x="1150" y="145" as="sourcePoint"/>
                        <mxPoint x="1160" y="145" as="targetPoint"/>
                    </mxGeometry>
                </mxCell>
                
                <!-- Output Flow -->
                <mxCell id="27" value="generates output" style="endArrow=classic;html=1;exitX=0.5;exitY=1;exitDx=0;exitDy=0;entryX=0.5;entryY=0;entryDx=0;entryDy=0;strokeWidth=2;" edge="1" parent="1" source="15" target="19">
                    <mxGeometry width="50" height="50" relative="1" as="geometry">
                        <mxPoint x="1060" y="180" as="sourcePoint"/>
                        <mxPoint x="1190" y="270" as="targetPoint"/>
                    </mxGeometry>
                </mxCell>
                
                <mxCell id="28" value="approval flow" style="endArrow=classic;html=1;exitX=1;exitY=0.5;exitDx=0;exitDy=0;entryX=0;entryY=0.5;entryDx=0;entryDy=0;strokeWidth=2;" edge="1" parent="1" source="19" target="20">
                    <mxGeometry width="50" height="50" relative="1" as="geometry">
                        <mxPoint x="1250" y="305" as="sourcePoint"/>
                        <mxPoint x="1280" y="315" as="targetPoint"/>
                    </mxGeometry>
                </mxCell>
                
                <!-- UI Progress Updates -->
                <mxCell id="29" value="progress &amp; results" style="endArrow=classic;html=1;exitX=0;exitY=0;exitDx=0;exitDy=0;entryX=1;entryY=0.5;entryDx=0;entryDy=0;strokeWidth=2;strokeColor=#6d9eeb;" edge="1" parent="1" source="20" target="5">
                    <mxGeometry width="50" height="50" relative="1" as="geometry">
                        <mxPoint x="1270" y="290" as="sourcePoint"/>
                        <mxPoint x="260" y="210" as="targetPoint"/>
                        <Array as="points">
                            <mxPoint x="280" y="290"/>
                            <mxPoint x="280" y="210"/>
                        </Array>
                    </mxGeometry>
                </mxCell>
                
                <!-- Technology Stack -->
                <mxCell id="30" value="Technology Stack:&#10;• LangGraph Framework&#10;• Vector Database&#10;• MongoDB&#10;• File Writer Tool" style="text;html=1;strokeColor=none;fillColor=none;align=left;verticalAlign=top;whiteSpace=wrap;rounded=0;fontSize=12;fontStyle=1;" vertex="1" parent="1">
                    <mxGeometry x="50" y="400" width="200" height="100" as="geometry"/>
                </mxCell>
                
                <!-- Workflow Notes -->
                <mxCell id="31" value="Key Features:&#10;• Human-in-the-loop approval&#10;• Multi-agent collaboration&#10;• Retry mechanism&#10;• Real-time progress tracking&#10;• Document processing pipeline" style="text;html=1;strokeColor=none;fillColor=none;align=left;verticalAlign=top;whiteSpace=wrap;rounded=0;fontSize=11;fontColor=#666666;" vertex="1" parent="1">
                    <mxGeometry x="300" y="400" width="250" height="100" as="geometry"/>
                </mxCell>
                
                <!-- Legend -->
                <mxCell id="32" value="Legend:" style="text;html=1;strokeColor=none;fillColor=none;align=left;verticalAlign=top;whiteSpace=wrap;rounded=0;fontSize=12;fontStyle=1;" vertex="1" parent="1">
                    <mxGeometry x="700" y="400" width="60" height="20" as="geometry"/>
                </mxCell>
                
                <mxCell id="33" value="UI Layer" style="rounded=1;whiteSpace=wrap;html=1;fillColor=#cfe2f3;strokeColor=#6d9eeb;" vertex="1" parent="1">
                    <mxGeometry x="700" y="430" width="80" height="25" as="geometry"/>
                </mxCell>
                
                <mxCell id="34" value="Processing" style="rounded=1;whiteSpace=wrap;html=1;fillColor=#f8cecc;strokeColor=#b85450;" vertex="1" parent="1">
                    <mxGeometry x="790" y="430" width="80" height="25" as="geometry"/>
                </mxCell>
                
                <mxCell id="35" value="AI Agents" style="rounded=1;whiteSpace=wrap;html=1;fillColor=#d5e8d4;strokeColor=#82b366;" vertex="1" parent="1">
                    <mxGeometry x="880" y="430" width="80" height="25" as="geometry"/>
                </mxCell>
                
                <mxCell id="36" value="Storage" style="shape=cylinder3;whiteSpace=wrap;html=1;boundedLbl=1;backgroundOutline=1;size=15;fillColor=#e1d5e7;strokeColor=#9673a6;" vertex="1" parent="1">
                    <mxGeometry x="700" y="465" width="60" height="25" as="geometry"/>
                </mxCell>
                
                <mxCell id="37" value="Human Interaction" style="ellipse;whiteSpace=wrap;html=1;fillColor=#ffcccc;strokeColor=#ff6666;" vertex="1" parent="1">
                    <mxGeometry x="770" y="465" width="100" height="25" as="geometry"/>
                </mxCell>
            </root>
        </mxGraphModel>
    </diagram>
</mxfile>
